<svg xmlns="http://www.w3.org/2000/svg" xmlns:xlink="http://www.w3.org/1999/xlink" width="500" zoomAndPan="magnify" viewBox="0 0 375 374.999991" height="500" preserveAspectRatio="xMidYMid meet" version="1.0"><defs><g/></defs><g fill="#69dfeb" fill-opacity="1"><g transform="translate(120.273307, 273.127072)"><g><path d="M 6.171875 -6.53125 L 2.3125 -6.53125 L 2.3125 -4.3125 L 5.8125 -4.3125 L 5.8125 -3.15625 L 2.3125 -3.15625 L 2.3125 0 L 1.015625 0 L 1.015625 -7.703125 L 6.1875 -7.703125 Z M 6.171875 -6.53125 "/></g></g></g><g fill="#69dfeb" fill-opacity="1"><g transform="translate(128.793837, 273.127072)"><g><path d="M 7.5625 -7.703125 L 7.5625 -3.1875 C 7.5625 -2.1875 7.265625 -1.394531 6.671875 -0.8125 C 6.078125 -0.226562 5.257812 0.0625 4.21875 0.0625 C 3.175781 0.0625 2.351562 -0.226562 1.75 -0.8125 C 1.15625 -1.394531 0.859375 -2.1875 0.859375 -3.1875 L 0.859375 -7.703125 L 2.15625 -7.703125 L 2.15625 -3.1875 C 2.15625 -2.539062 2.335938 -2.03125 2.703125 -1.65625 C 3.078125 -1.289062 3.582031 -1.109375 4.21875 -1.109375 C 4.851562 -1.109375 5.351562 -1.289062 5.71875 -1.65625 C 6.082031 -2.03125 6.265625 -2.539062 6.265625 -3.1875 L 6.265625 -7.703125 Z M 7.5625 -7.703125 "/></g></g></g><g fill="#69dfeb" fill-opacity="1"><g transform="translate(139.391905, 273.127072)"><g><path d="M 2.3125 -1.171875 L 5.640625 -1.171875 L 5.640625 0 L 1.015625 0 L 1.015625 -7.703125 L 2.3125 -7.703125 Z M 2.3125 -1.171875 "/></g></g></g><g fill="#69dfeb" fill-opacity="1"><g transform="translate(147.461755, 273.127072)"><g><path d="M 2.3125 -1.171875 L 5.640625 -1.171875 L 5.640625 0 L 1.015625 0 L 1.015625 -7.703125 L 2.3125 -7.703125 Z M 2.3125 -1.171875 "/></g></g></g><g fill="#69dfeb" fill-opacity="1"><g transform="translate(155.531607, 273.127072)"><g><path d="M 3.375 -2.921875 L 0.671875 -2.921875 L 0.671875 -3.78125 L 3.375 -3.78125 Z M 3.375 -2.921875 "/></g></g></g><g fill="#69dfeb" fill-opacity="1"><g transform="translate(161.776756, 273.127072)"><g><path d="M 3.546875 -7.75 C 4.535156 -7.75 5.429688 -7.488281 6.234375 -6.96875 L 5.703125 -5.8125 C 4.910156 -6.289062 4.15625 -6.53125 3.4375 -6.53125 C 3.050781 -6.53125 2.742188 -6.457031 2.515625 -6.3125 C 2.296875 -6.175781 2.1875 -5.976562 2.1875 -5.71875 C 2.1875 -5.46875 2.289062 -5.253906 2.5 -5.078125 C 2.707031 -4.898438 2.960938 -4.765625 3.265625 -4.671875 C 3.578125 -4.585938 3.910156 -4.484375 4.265625 -4.359375 C 4.628906 -4.234375 4.960938 -4.097656 5.265625 -3.953125 C 5.578125 -3.804688 5.832031 -3.582031 6.03125 -3.28125 C 6.238281 -2.976562 6.34375 -2.609375 6.34375 -2.171875 C 6.34375 -1.503906 6.070312 -0.96875 5.53125 -0.5625 C 4.988281 -0.15625 4.289062 0.046875 3.4375 0.046875 C 2.84375 0.046875 2.269531 -0.0625 1.71875 -0.28125 C 1.175781 -0.5 0.695312 -0.796875 0.28125 -1.171875 L 0.84375 -2.296875 C 1.238281 -1.941406 1.664062 -1.664062 2.125 -1.46875 C 2.59375 -1.269531 3.035156 -1.171875 3.453125 -1.171875 C 3.910156 -1.171875 4.265625 -1.253906 4.515625 -1.421875 C 4.765625 -1.585938 4.890625 -1.816406 4.890625 -2.109375 C 4.890625 -2.378906 4.785156 -2.601562 4.578125 -2.78125 C 4.378906 -2.957031 4.125 -3.085938 3.8125 -3.171875 C 3.507812 -3.253906 3.175781 -3.351562 2.8125 -3.46875 C 2.457031 -3.59375 2.125 -3.722656 1.8125 -3.859375 C 1.507812 -3.992188 1.253906 -4.210938 1.046875 -4.515625 C 0.835938 -4.816406 0.734375 -5.179688 0.734375 -5.609375 C 0.734375 -6.265625 0.988281 -6.785156 1.5 -7.171875 C 2.019531 -7.554688 2.703125 -7.75 3.546875 -7.75 Z M 3.546875 -7.75 "/></g></g></g><g fill="#69dfeb" fill-opacity="1"><g transform="translate(170.813932, 273.127072)"><g><path d="M 6.265625 -6.53125 L 3.828125 -6.53125 L 3.828125 0 L 2.53125 0 L 2.53125 -6.53125 L 0.09375 -6.53125 L 0.09375 -7.703125 L 6.265625 -7.703125 Z M 6.265625 -6.53125 "/></g></g></g><g fill="#69dfeb" fill-opacity="1"><g transform="translate(179.378443, 273.127072)"><g><path d="M 5.984375 -1.734375 L 2.09375 -1.734375 L 1.359375 0 L 0.015625 0 L 3.40625 -7.703125 L 4.734375 -7.703125 L 8.109375 0 L 6.71875 0 Z M 5.484375 -2.890625 L 4.03125 -6.3125 L 2.578125 -2.890625 Z M 5.484375 -2.890625 "/></g></g></g><g fill="#69dfeb" fill-opacity="1"><g transform="translate(189.69072, 273.127072)"><g><path d="M 4.421875 -7.734375 C 4.960938 -7.734375 5.488281 -7.628906 6 -7.421875 C 6.519531 -7.210938 6.96875 -6.921875 7.34375 -6.546875 L 6.59375 -5.59375 C 6.3125 -5.894531 5.976562 -6.132812 5.59375 -6.3125 C 5.21875 -6.488281 4.832031 -6.578125 4.4375 -6.578125 C 3.664062 -6.578125 3.015625 -6.3125 2.484375 -5.78125 C 1.953125 -5.257812 1.6875 -4.625 1.6875 -3.875 C 1.6875 -3.113281 1.953125 -2.46875 2.484375 -1.9375 C 3.015625 -1.414062 3.664062 -1.15625 4.4375 -1.15625 C 5.238281 -1.15625 5.957031 -1.457031 6.59375 -2.0625 L 7.359375 -1.203125 C 6.960938 -0.816406 6.5 -0.507812 5.96875 -0.28125 C 5.445312 -0.0507812 4.914062 0.0625 4.375 0.0625 C 3.25 0.0625 2.300781 -0.3125 1.53125 -1.0625 C 0.757812 -1.820312 0.375 -2.753906 0.375 -3.859375 C 0.375 -4.953125 0.765625 -5.867188 1.546875 -6.609375 C 2.328125 -7.359375 3.285156 -7.734375 4.421875 -7.734375 Z M 4.421875 -7.734375 "/></g></g></g><g fill="#69dfeb" fill-opacity="1"><g transform="translate(199.552305, 273.127072)"><g><path d="M 6.15625 0 L 3.625 -3.40625 L 2.3125 -1.953125 L 2.3125 0 L 1.015625 0 L 1.015625 -7.703125 L 2.3125 -7.703125 L 2.3125 -3.71875 L 5.984375 -7.703125 L 7.515625 -7.703125 L 4.53125 -4.40625 L 7.71875 0 Z M 6.15625 0 "/></g></g></g><g fill="#69dfeb" fill-opacity="1"><g transform="translate(209.644728, 273.127072)"><g/></g></g><g fill="#69dfeb" fill-opacity="1"><g transform="translate(214.680729, 273.127072)"><g><path d="M 8.9375 0 L 7.59375 0 L 5.78125 -6 L 3.921875 0 L 2.578125 0 L 0.03125 -7.703125 L 1.4375 -7.703125 L 3.296875 -1.4375 L 5.15625 -7.6875 L 6.4375 -7.703125 L 8.3125 -1.4375 L 10.15625 -7.703125 L 11.5 -7.703125 Z M 8.9375 0 "/></g></g></g><g fill="#69dfeb" fill-opacity="1"><g transform="translate(228.268676, 273.127072)"><g><path d="M 6.515625 -6.53125 L 2.3125 -6.53125 L 2.3125 -4.453125 L 6.078125 -4.453125 L 6.078125 -3.28125 L 2.3125 -3.28125 L 2.3125 -1.171875 L 6.640625 -1.171875 L 6.640625 0 L 1.015625 0 L 1.015625 -7.703125 L 6.515625 -7.703125 Z M 6.515625 -6.53125 "/></g></g></g><g fill="#69dfeb" fill-opacity="1"><g transform="translate(237.679576, 273.127072)"><g><path d="M 1.015625 -7.703125 L 4.359375 -7.703125 C 5.160156 -7.703125 5.789062 -7.53125 6.25 -7.1875 C 6.707031 -6.84375 6.9375 -6.375 6.9375 -5.78125 C 6.9375 -5.34375 6.816406 -4.972656 6.578125 -4.671875 C 6.335938 -4.367188 6.007812 -4.164062 5.59375 -4.0625 C 6.101562 -3.96875 6.503906 -3.75 6.796875 -3.40625 C 7.085938 -3.0625 7.234375 -2.628906 7.234375 -2.109375 C 7.234375 -1.453125 6.984375 -0.9375 6.484375 -0.5625 C 5.984375 -0.1875 5.300781 0 4.4375 0 L 1.015625 0 Z M 2.3125 -6.546875 L 2.3125 -4.515625 L 4.296875 -4.515625 C 4.703125 -4.515625 5.019531 -4.601562 5.25 -4.78125 C 5.488281 -4.96875 5.609375 -5.222656 5.609375 -5.546875 C 5.609375 -5.867188 5.492188 -6.113281 5.265625 -6.28125 C 5.035156 -6.457031 4.710938 -6.546875 4.296875 -6.546875 Z M 2.3125 -3.359375 L 2.3125 -1.15625 L 4.296875 -1.15625 C 4.804688 -1.15625 5.203125 -1.25 5.484375 -1.4375 C 5.765625 -1.632812 5.90625 -1.914062 5.90625 -2.28125 C 5.90625 -2.613281 5.757812 -2.875 5.46875 -3.0625 C 5.1875 -3.257812 4.796875 -3.359375 4.296875 -3.359375 Z M 2.3125 -3.359375 "/></g></g></g><g fill="#69dfeb" fill-opacity="1"><g transform="translate(140.136587, 288.127071)"><g><path d="M 1.015625 -7.703125 L 4.171875 -7.703125 C 5.316406 -7.703125 6.265625 -7.335938 7.015625 -6.609375 C 7.773438 -5.878906 8.15625 -4.957031 8.15625 -3.84375 C 8.15625 -2.726562 7.773438 -1.804688 7.015625 -1.078125 C 6.265625 -0.359375 5.304688 0 4.140625 0 L 1.015625 0 Z M 2.3125 -6.53125 L 2.3125 -1.171875 L 4.203125 -1.171875 C 4.953125 -1.171875 5.578125 -1.421875 6.078125 -1.921875 C 6.585938 -2.421875 6.84375 -3.054688 6.84375 -3.828125 C 6.84375 -4.609375 6.582031 -5.253906 6.0625 -5.765625 C 5.550781 -6.273438 4.910156 -6.53125 4.140625 -6.53125 Z M 2.3125 -6.53125 "/></g></g></g><g fill="#69dfeb" fill-opacity="1"><g transform="translate(150.855573, 288.127071)"><g><path d="M 6.515625 -6.53125 L 2.3125 -6.53125 L 2.3125 -4.453125 L 6.078125 -4.453125 L 6.078125 -3.28125 L 2.3125 -3.28125 L 2.3125 -1.171875 L 6.640625 -1.171875 L 6.640625 0 L 1.015625 0 L 1.015625 -7.703125 L 6.515625 -7.703125 Z M 6.515625 -6.53125 "/></g></g></g><g fill="#69dfeb" fill-opacity="1"><g transform="translate(160.266477, 288.127071)"><g><path d="M 4.4375 0 L 3.109375 0 L 0.03125 -7.703125 L 1.4375 -7.703125 L 3.8125 -1.4375 L 6.203125 -7.703125 L 7.5625 -7.703125 Z M 4.4375 0 "/></g></g></g><g fill="#69dfeb" fill-opacity="1"><g transform="translate(170.05112, 288.127071)"><g><path d="M 6.515625 -6.53125 L 2.3125 -6.53125 L 2.3125 -4.453125 L 6.078125 -4.453125 L 6.078125 -3.28125 L 2.3125 -3.28125 L 2.3125 -1.171875 L 6.640625 -1.171875 L 6.640625 0 L 1.015625 0 L 1.015625 -7.703125 L 6.515625 -7.703125 Z M 6.515625 -6.53125 "/></g></g></g><g fill="#69dfeb" fill-opacity="1"><g transform="translate(179.462025, 288.127071)"><g><path d="M 2.3125 -1.171875 L 5.640625 -1.171875 L 5.640625 0 L 1.015625 0 L 1.015625 -7.703125 L 2.3125 -7.703125 Z M 2.3125 -1.171875 "/></g></g></g><g fill="#69dfeb" fill-opacity="1"><g transform="translate(187.531878, 288.127071)"><g><path d="M 1.546875 -6.609375 C 2.335938 -7.359375 3.304688 -7.734375 4.453125 -7.734375 C 5.609375 -7.734375 6.578125 -7.359375 7.359375 -6.609375 C 8.140625 -5.867188 8.53125 -4.945312 8.53125 -3.84375 C 8.53125 -2.75 8.140625 -1.820312 7.359375 -1.0625 C 6.578125 -0.3125 5.609375 0.0625 4.453125 0.0625 C 3.304688 0.0625 2.335938 -0.3125 1.546875 -1.0625 C 0.765625 -1.820312 0.375 -2.75 0.375 -3.84375 C 0.375 -4.945312 0.765625 -5.867188 1.546875 -6.609375 Z M 4.46875 -6.5625 C 3.707031 -6.5625 3.050781 -6.300781 2.5 -5.78125 C 1.957031 -5.257812 1.6875 -4.613281 1.6875 -3.84375 C 1.6875 -3.082031 1.957031 -2.4375 2.5 -1.90625 C 3.050781 -1.375 3.703125 -1.109375 4.453125 -1.109375 C 5.210938 -1.109375 5.859375 -1.375 6.390625 -1.90625 C 6.929688 -2.4375 7.203125 -3.082031 7.203125 -3.84375 C 7.203125 -4.613281 6.929688 -5.257812 6.390625 -5.78125 C 5.859375 -6.300781 5.21875 -6.5625 4.46875 -6.5625 Z M 4.46875 -6.5625 "/></g></g></g><g fill="#69dfeb" fill-opacity="1"><g transform="translate(198.635593, 288.127071)"><g><path d="M 1.015625 -7.703125 L 4.078125 -7.703125 C 5.046875 -7.703125 5.796875 -7.472656 6.328125 -7.015625 C 6.859375 -6.554688 7.125 -5.910156 7.125 -5.078125 C 7.125 -4.203125 6.859375 -3.523438 6.328125 -3.046875 C 5.796875 -2.566406 5.046875 -2.328125 4.078125 -2.328125 L 2.3125 -2.328125 L 2.3125 0 L 1.015625 0 Z M 2.3125 -6.53125 L 2.3125 -3.484375 L 4.03125 -3.484375 C 5.269531 -3.484375 5.890625 -4 5.890625 -5.03125 C 5.890625 -6.03125 5.269531 -6.53125 4.03125 -6.53125 Z M 2.3125 -6.53125 "/></g></g></g><g fill="#69dfeb" fill-opacity="1"><g transform="translate(208.233369, 288.127071)"><g><path d="M 6.515625 -6.53125 L 2.3125 -6.53125 L 2.3125 -4.453125 L 6.078125 -4.453125 L 6.078125 -3.28125 L 2.3125 -3.28125 L 2.3125 -1.171875 L 6.640625 -1.171875 L 6.640625 0 L 1.015625 0 L 1.015625 -7.703125 L 6.515625 -7.703125 Z M 6.515625 -6.53125 "/></g></g></g><g fill="#69dfeb" fill-opacity="1"><g transform="translate(217.644274, 288.127071)"><g><path d="M 5.890625 0 L 4.484375 -2.328125 C 4.410156 -2.328125 4.296875 -2.328125 4.140625 -2.328125 L 2.3125 -2.328125 L 2.3125 0 L 1.015625 0 L 1.015625 -7.703125 L 4.140625 -7.703125 C 5.117188 -7.703125 5.878906 -7.472656 6.421875 -7.015625 C 6.960938 -6.554688 7.234375 -5.910156 7.234375 -5.078125 C 7.234375 -4.453125 7.09375 -3.925781 6.8125 -3.5 C 6.539062 -3.082031 6.148438 -2.773438 5.640625 -2.578125 L 7.375 0 Z M 2.3125 -3.484375 L 4.140625 -3.484375 C 5.378906 -3.484375 6 -4 6 -5.03125 C 6 -6.03125 5.378906 -6.53125 4.140625 -6.53125 L 2.3125 -6.53125 Z M 2.3125 -3.484375 "/></g></g></g><g fill="#69dfeb" fill-opacity="1"><g transform="translate(125.284559, 176.68471)"><g><path d="M 67.664062 -8.660156 C 64.433594 -5.542969 60.507812 -2.65625 55.308594 -1.5 C 36.027344 3.808594 19.167969 -14.433594 14.550781 -32.101562 C 10.046875 -49.652344 15.242188 -73.902344 34.871094 -79.328125 C 59.351562 -86.140625 71.707031 -60.042969 72.285156 -58.660156 L 72.285156 -70.667969 C 72.285156 -70.667969 60.160156 -87.179688 34.757812 -80.136719 C 12.703125 -74.363281 -0.347656 -51.730469 5.542969 -29.792969 C 11.546875 -7.851562 34.0625 5.425781 55.542969 -0.921875 C 64.203125 -3.117188 71.476562 -7.851562 76.441406 -14.203125 L 76.441406 -38.335938 L 32.332031 -38.335938 L 32.332031 -29.445312 C 40.53125 -36.949219 53.578125 -37.414062 67.664062 -37.414062 Z M 67.664062 -8.660156 "/></g></g></g><g fill="#69dfeb" fill-opacity="1"><g transform="translate(155.775184, 208.608303)"><g><path d="M 34.527344 -80.367188 C 12.703125 -74.476562 -0.347656 -52.078125 5.425781 -30.136719 C 11.429688 -7.96875 33.71875 5.082031 55.425781 -1.039062 C 77.363281 -6.8125 90.414062 -29.558594 84.292969 -51.152344 C 78.636719 -73.09375 56.117188 -86.488281 34.527344 -80.367188 Z M 34.640625 -79.445312 C 54.5 -84.984375 70.667969 -66.625 75.402344 -48.84375 C 79.90625 -31.292969 74.941406 -6.929688 55.195312 -1.847656 C 35.679688 3.347656 19.398438 -15.125 14.78125 -32.5625 C 10.046875 -50.230469 15.011719 -74.363281 34.640625 -79.445312 Z M 34.640625 -79.445312 "/></g></g></g><g fill="#69dfeb" fill-opacity="1"><g transform="translate(72.858567, 249.598095)"><g><path d="M 13.597656 -1.742188 C 12.949219 -1.113281 12.160156 -0.535156 11.113281 -0.300781 C 7.238281 0.765625 3.851562 -2.902344 2.925781 -6.449219 C 2.019531 -9.976562 3.0625 -14.851562 7.007812 -15.941406 C 11.925781 -17.3125 14.410156 -12.066406 14.527344 -11.789062 L 14.527344 -14.203125 C 14.527344 -14.203125 12.089844 -17.519531 6.984375 -16.105469 C 2.550781 -14.945312 -0.0703125 -10.394531 1.113281 -5.988281 C 2.320312 -1.578125 6.84375 1.089844 11.160156 -0.1875 C 12.902344 -0.625 14.363281 -1.578125 15.363281 -2.855469 L 15.363281 -7.703125 L 6.496094 -7.703125 L 6.496094 -5.917969 C 8.144531 -7.425781 10.765625 -7.519531 13.597656 -7.519531 Z M 13.597656 -1.742188 "/></g></g></g><g fill="#69dfeb" fill-opacity="1"><g transform="translate(89.889887, 249.598095)"><g><path d="M 2.644531 -16.40625 L 0.8125 -16.40625 L 0.8125 -5.941406 C 0.8125 -1.347656 5.40625 1.136719 9.558594 -0.347656 C 11.996094 -1.253906 13.273438 -3.363281 13.273438 -5.941406 L 13.273438 -16.40625 L 11.464844 -16.40625 C 12.996094 -14.410156 13.0625 -9.421875 13.0625 -5.941406 C 13.0625 -3.273438 11.742188 -1.347656 9.515625 -0.535156 C 5.777344 0.859375 2.644531 -2.089844 2.644531 -5.941406 Z M 2.644531 -16.40625 "/></g></g></g><g fill="#69dfeb" fill-opacity="1"><g transform="translate(104.832934, 249.598095)"><g><path d="M 1.996094 -12.4375 C 1.996094 -9.792969 4.433594 -8.46875 6.914062 -7.355469 C 12.320312 -4.875 12.738281 -2.484375 11.207031 -1.207031 C 8.285156 1.253906 3.085938 -0.765625 0.8125 -6.519531 L 0.8125 -3.296875 C 3.433594 0.0703125 8.75 0.996094 11.394531 -1.019531 C 12.230469 -1.695312 12.738281 -2.667969 12.738281 -3.921875 C 12.738281 -6.660156 10.328125 -7.984375 7.796875 -9.074219 C 2.136719 -11.71875 1.949219 -14.269531 3.757812 -15.453125 C 5.894531 -16.941406 10.117188 -16.589844 12.460938 -11.835938 L 12.460938 -14.269531 C 10.464844 -17.496094 1.996094 -17.613281 1.996094 -12.4375 Z M 1.996094 -12.4375 "/></g></g></g><g fill="#69dfeb" fill-opacity="1"><g transform="translate(119.24231, 249.598095)"><g><path d="M 6.335938 0 L 8.121094 0 L 8.121094 -16.21875 C 10.582031 -16.195312 12.066406 -16.058594 13.644531 -14.597656 L 13.644531 -16.40625 L 0.8125 -16.40625 L 0.8125 -14.597656 C 2.34375 -16.058594 3.851562 -16.195312 6.335938 -16.21875 Z M 6.335938 0 "/></g></g></g><g fill="#69dfeb" fill-opacity="1"><g transform="translate(134.556604, 249.598095)"><g><path d="M 12.089844 0 L 14.039062 0 L 7.101562 -16.382812 L 6.9375 -16.382812 C 5.175781 -13.390625 3.085938 -9.164062 1.855469 -5.847656 C 1.300781 -4.363281 0.976562 -3.0625 0.859375 -2.042969 C 0.742188 -0.996094 0.996094 -0.300781 1.625 -0.0234375 C 1.785156 0.117188 1.855469 0.117188 1.996094 0.140625 C 3.039062 0.1875 3.433594 -0.671875 3.875 -1.832031 C 4.617188 -3.527344 5.523438 -5.917969 9.46875 -6.289062 Z M 9.398438 -6.449219 C 5.382812 -6.054688 4.457031 -3.621094 3.691406 -1.878906 C 3.316406 -0.8125 2.945312 0 2.019531 -0.0703125 C 1.902344 -0.140625 1.832031 -0.140625 1.695312 -0.1875 C 1.136719 -0.371094 0.976562 -1.089844 1.019531 -2.042969 C 1.136719 -3.039062 1.460938 -4.316406 2.019531 -5.800781 C 2.992188 -8.492188 4.570312 -11.648438 5.988281 -14.386719 Z M 9.398438 -6.449219 "/></g></g></g><g fill="#69dfeb" fill-opacity="1"><g transform="translate(150.265353, 249.598095)"><g><path d="M 14.621094 -16.40625 L 9.582031 -4.523438 L 8.679688 -2.320312 L 2.714844 -16.40625 L 0.8125 -16.40625 L 7.726562 0 L 7.914062 0 L 13.644531 -13.574219 L 14.851562 -16.40625 Z M 14.621094 -16.40625 "/></g></g></g><g fill="#69dfeb" fill-opacity="1"><g transform="translate(166.786209, 249.598095)"><g><path d="M 6.9375 -16.152344 C 2.550781 -14.96875 -0.0703125 -10.464844 1.089844 -6.054688 C 2.296875 -1.601562 6.777344 1.019531 11.136719 -0.207031 C 15.546875 -1.367188 18.167969 -5.941406 16.941406 -10.28125 C 15.800781 -14.6875 11.277344 -17.378906 6.9375 -16.152344 Z M 6.960938 -15.964844 C 10.953125 -17.078125 14.203125 -13.390625 15.152344 -9.816406 C 16.058594 -6.289062 15.058594 -1.390625 11.09375 -0.371094 C 7.171875 0.671875 3.898438 -3.039062 2.96875 -6.542969 C 2.019531 -10.09375 3.015625 -14.945312 6.960938 -15.964844 Z M 6.960938 -15.964844 "/></g></g></g><g fill="#69dfeb" fill-opacity="1"><g transform="translate(185.720194, 249.598095)"><g/></g></g><g fill="#69dfeb" fill-opacity="1"><g transform="translate(193.052629, 249.598095)"><g><path d="M 6.9375 -16.152344 C 2.550781 -14.96875 -0.0703125 -10.464844 1.089844 -6.054688 C 2.296875 -1.601562 6.777344 1.019531 11.136719 -0.207031 C 15.546875 -1.367188 18.167969 -5.941406 16.941406 -10.28125 C 15.800781 -14.6875 11.277344 -17.378906 6.9375 -16.152344 Z M 6.960938 -15.964844 C 10.953125 -17.078125 14.203125 -13.390625 15.152344 -9.816406 C 16.058594 -6.289062 15.058594 -1.390625 11.09375 -0.371094 C 7.171875 0.671875 3.898438 -3.039062 2.96875 -6.542969 C 2.019531 -10.09375 3.015625 -14.945312 6.960938 -15.964844 Z M 6.960938 -15.964844 "/></g></g></g><g fill="#69dfeb" fill-opacity="1"><g transform="translate(211.986603, 249.598095)"><g><path d="M 10.628906 -3.433594 C 9.769531 -1.089844 8.585938 -0.1875 6.589844 -0.1875 L 2.667969 -0.1875 L 2.667969 -16.382812 L 0.8125 -16.382812 L 0.8125 0 L 10.070312 0 Z M 10.628906 -3.433594 "/></g></g></g><g fill="#69dfeb" fill-opacity="1"><g transform="translate(224.284492, 249.598095)"><g><path d="M 0.8125 0 L 2.550781 0 L 2.550781 -16.382812 L 0.8125 -16.382812 Z M 0.8125 0 "/></g></g></g><g fill="#69dfeb" fill-opacity="1"><g transform="translate(228.507728, 249.598095)"><g><path d="M 14.621094 -16.40625 L 9.582031 -4.523438 L 8.679688 -2.320312 L 2.714844 -16.40625 L 0.8125 -16.40625 L 7.726562 0 L 7.914062 0 L 13.644531 -13.574219 L 14.851562 -16.40625 Z M 14.621094 -16.40625 "/></g></g></g><g fill="#69dfeb" fill-opacity="1"><g transform="translate(245.028578, 249.598095)"><g><path d="M 2.597656 -10.929688 C 3.273438 -8.191406 6.054688 -8.332031 7.402344 -6.800781 L 7.402344 -8.632812 C 4.222656 -8.632812 2.597656 -9.28125 2.597656 -12.460938 L 2.597656 -16.21875 L 4.5 -16.21875 C 7.332031 -16.21875 8.539062 -16.105469 10.1875 -14.527344 L 10.1875 -16.382812 L 0.8125 -16.382812 L 0.8125 0 L 10.046875 0 L 10.582031 -3.433594 C 9.746094 -1.089844 8.539062 -0.1875 6.519531 -0.1875 L 2.597656 -0.1875 Z M 2.597656 -10.929688 "/></g></g></g><g fill="#69dfeb" fill-opacity="1"><g transform="translate(257.280073, 249.598095)"><g><path d="M 0.8125 0 L 2.550781 0 L 2.550781 -16.382812 L 0.8125 -16.382812 Z M 0.8125 0 "/></g></g></g><g fill="#69dfeb" fill-opacity="1"><g transform="translate(261.503309, 249.598095)"><g><path d="M 7.378906 -9.050781 C 9.398438 -9.304688 11.113281 -10.464844 11.113281 -12.738281 C 11.113281 -15.386719 8.308594 -16.40625 4.894531 -16.40625 L 0.8125 -16.40625 L 0.8125 0 L 2.644531 0 L 2.644531 -13.019531 C 2.855469 -12.042969 3.132812 -11.300781 3.550781 -10.628906 C 4.246094 -9.539062 5.246094 -8.957031 6.382812 -8.957031 C 11.625 -8.957031 6.382812 0 14.828125 0 L 14.828125 -0.1875 C 13.273438 -0.1875 12.414062 -1.949219 11.53125 -3.96875 C 10.605469 -6.148438 9.792969 -8.492188 7.378906 -9.050781 Z M 9.28125 -12.738281 C 9.28125 -10.304688 8.027344 -9.210938 6.542969 -9.121094 L 6.382812 -9.121094 C 5.3125 -9.121094 4.363281 -9.792969 3.710938 -10.742188 C 3.0625 -11.765625 2.644531 -13.085938 2.644531 -14.78125 L 2.644531 -16.21875 L 4.894531 -16.21875 C 7.148438 -16.21875 9.28125 -15.386719 9.28125 -12.738281 Z M 9.28125 -12.738281 "/></g></g></g><g fill="#69dfeb" fill-opacity="1"><g transform="translate(278.000973, 249.598095)"><g><path d="M 12.089844 0 L 14.039062 0 L 7.101562 -16.382812 L 6.9375 -16.382812 C 5.175781 -13.390625 3.085938 -9.164062 1.855469 -5.847656 C 1.300781 -4.363281 0.976562 -3.0625 0.859375 -2.042969 C 0.742188 -0.996094 0.996094 -0.300781 1.625 -0.0234375 C 1.785156 0.117188 1.855469 0.117188 1.996094 0.140625 C 3.039062 0.1875 3.433594 -0.671875 3.875 -1.832031 C 4.617188 -3.527344 5.523438 -5.917969 9.46875 -6.289062 Z M 9.398438 -6.449219 C 5.382812 -6.054688 4.457031 -3.621094 3.691406 -1.878906 C 3.316406 -0.8125 2.945312 0 2.019531 -0.0703125 C 1.902344 -0.140625 1.832031 -0.140625 1.695312 -0.1875 C 1.136719 -0.371094 0.976562 -1.089844 1.019531 -2.042969 C 1.136719 -3.039062 1.460938 -4.316406 2.019531 -5.800781 C 2.992188 -8.492188 4.570312 -11.648438 5.988281 -14.386719 Z M 9.398438 -6.449219 "/></g></g></g></svg>