<svg xmlns="http://www.w3.org/2000/svg" xmlns:xlink="http://www.w3.org/1999/xlink" width="500" zoomAndPan="magnify" viewBox="0 0 375 374.999991" height="500" preserveAspectRatio="xMidYMid meet" version="1.0"><defs><g/></defs><g fill="#69dfeb" fill-opacity="1"><g transform="translate(108.871742, 274.427092)"><g><path d="M 7.296875 -7.71875 L 2.734375 -7.71875 L 2.734375 -5.09375 L 6.859375 -5.09375 L 6.859375 -3.734375 L 2.734375 -3.734375 L 2.734375 0 L 1.203125 0 L 1.203125 -9.09375 L 7.3125 -9.09375 Z M 7.296875 -7.71875 "/></g></g></g><g fill="#69dfeb" fill-opacity="1"><g transform="translate(118.944442, 274.427092)"><g><path d="M 8.9375 -9.09375 L 8.9375 -3.765625 C 8.9375 -2.578125 8.582031 -1.640625 7.875 -0.953125 C 7.175781 -0.273438 6.210938 0.0625 4.984375 0.0625 C 3.753906 0.0625 2.785156 -0.273438 2.078125 -0.953125 C 1.367188 -1.640625 1.015625 -2.578125 1.015625 -3.765625 L 1.015625 -9.09375 L 2.546875 -9.09375 L 2.546875 -3.765625 C 2.546875 -3.003906 2.765625 -2.40625 3.203125 -1.96875 C 3.640625 -1.53125 4.234375 -1.3125 4.984375 -1.3125 C 5.734375 -1.3125 6.320312 -1.523438 6.75 -1.953125 C 7.175781 -2.390625 7.390625 -2.992188 7.390625 -3.765625 L 7.390625 -9.09375 Z M 8.9375 -9.09375 "/></g></g></g><g fill="#69dfeb" fill-opacity="1"><g transform="translate(131.473398, 274.427092)"><g><path d="M 2.734375 -1.390625 L 6.671875 -1.390625 L 6.671875 0 L 1.203125 0 L 1.203125 -9.09375 L 2.734375 -9.09375 Z M 2.734375 -1.390625 "/></g></g></g><g fill="#69dfeb" fill-opacity="1"><g transform="translate(141.013261, 274.427092)"><g><path d="M 2.734375 -1.390625 L 6.671875 -1.390625 L 6.671875 0 L 1.203125 0 L 1.203125 -9.09375 L 2.734375 -9.09375 Z M 2.734375 -1.390625 "/></g></g></g><g fill="#69dfeb" fill-opacity="1"><g transform="translate(150.553124, 274.427092)"><g><path d="M 3.984375 -3.4375 L 0.796875 -3.4375 L 0.796875 -4.46875 L 3.984375 -4.46875 Z M 3.984375 -3.4375 "/></g></g></g><g fill="#69dfeb" fill-opacity="1"><g transform="translate(157.93565, 274.427092)"><g><path d="M 4.1875 -9.171875 C 5.363281 -9.171875 6.425781 -8.859375 7.375 -8.234375 L 6.734375 -6.875 C 5.804688 -7.4375 4.914062 -7.71875 4.0625 -7.71875 C 3.601562 -7.71875 3.242188 -7.632812 2.984375 -7.46875 C 2.722656 -7.3125 2.59375 -7.078125 2.59375 -6.765625 C 2.59375 -6.460938 2.710938 -6.207031 2.953125 -6 C 3.191406 -5.789062 3.492188 -5.632812 3.859375 -5.53125 C 4.222656 -5.425781 4.617188 -5.296875 5.046875 -5.140625 C 5.472656 -4.992188 5.863281 -4.835938 6.21875 -4.671875 C 6.582031 -4.503906 6.882812 -4.238281 7.125 -3.875 C 7.363281 -3.519531 7.484375 -3.085938 7.484375 -2.578125 C 7.484375 -1.773438 7.164062 -1.132812 6.53125 -0.65625 C 5.894531 -0.1875 5.070312 0.046875 4.0625 0.046875 C 3.363281 0.046875 2.6875 -0.0820312 2.03125 -0.34375 C 1.382812 -0.601562 0.820312 -0.953125 0.34375 -1.390625 L 1 -2.71875 C 1.457031 -2.289062 1.960938 -1.960938 2.515625 -1.734375 C 3.066406 -1.503906 3.585938 -1.390625 4.078125 -1.390625 C 4.617188 -1.390625 5.035156 -1.484375 5.328125 -1.671875 C 5.628906 -1.867188 5.78125 -2.144531 5.78125 -2.5 C 5.78125 -2.8125 5.660156 -3.070312 5.421875 -3.28125 C 5.179688 -3.488281 4.878906 -3.644531 4.515625 -3.75 C 4.148438 -3.851562 3.753906 -3.972656 3.328125 -4.109375 C 2.898438 -4.253906 2.503906 -4.40625 2.140625 -4.5625 C 1.773438 -4.726562 1.472656 -4.988281 1.234375 -5.34375 C 0.992188 -5.695312 0.875 -6.125 0.875 -6.625 C 0.875 -7.394531 1.175781 -8.007812 1.78125 -8.46875 C 2.382812 -8.9375 3.1875 -9.171875 4.1875 -9.171875 Z M 4.1875 -9.171875 "/></g></g></g><g fill="#69dfeb" fill-opacity="1"><g transform="translate(168.619167, 274.427092)"><g><path d="M 7.40625 -7.71875 L 4.53125 -7.71875 L 4.53125 0 L 2.984375 0 L 2.984375 -7.71875 L 0.109375 -7.71875 L 0.109375 -9.09375 L 7.40625 -9.09375 Z M 7.40625 -7.71875 "/></g></g></g><g fill="#69dfeb" fill-opacity="1"><g transform="translate(178.743857, 274.427092)"><g><path d="M 7.078125 -2.046875 L 2.484375 -2.046875 L 1.609375 0 L 0.015625 0 L 4.03125 -9.09375 L 5.609375 -9.09375 L 9.578125 0 L 7.9375 0 Z M 6.484375 -3.421875 L 4.765625 -7.46875 L 3.0625 -3.421875 Z M 6.484375 -3.421875 "/></g></g></g><g fill="#69dfeb" fill-opacity="1"><g transform="translate(190.934915, 274.427092)"><g><path d="M 5.21875 -9.140625 C 5.863281 -9.140625 6.488281 -9.015625 7.09375 -8.765625 C 7.707031 -8.515625 8.238281 -8.171875 8.6875 -7.734375 L 7.78125 -6.609375 C 7.457031 -6.972656 7.066406 -7.257812 6.609375 -7.46875 C 6.160156 -7.675781 5.707031 -7.78125 5.25 -7.78125 C 4.34375 -7.78125 3.570312 -7.46875 2.9375 -6.84375 C 2.3125 -6.226562 2 -5.472656 2 -4.578125 C 2 -3.671875 2.3125 -2.90625 2.9375 -2.28125 C 3.570312 -1.664062 4.34375 -1.359375 5.25 -1.359375 C 6.195312 -1.359375 7.039062 -1.71875 7.78125 -2.4375 L 8.703125 -1.4375 C 8.234375 -0.96875 7.6875 -0.597656 7.0625 -0.328125 C 6.4375 -0.0664062 5.804688 0.0625 5.171875 0.0625 C 3.835938 0.0625 2.710938 -0.378906 1.796875 -1.265625 C 0.890625 -2.148438 0.4375 -3.25 0.4375 -4.5625 C 0.4375 -5.851562 0.898438 -6.9375 1.828125 -7.8125 C 2.753906 -8.695312 3.882812 -9.140625 5.21875 -9.140625 Z M 5.21875 -9.140625 "/></g></g></g><g fill="#69dfeb" fill-opacity="1"><g transform="translate(202.593137, 274.427092)"><g><path d="M 7.265625 0 L 4.28125 -4.015625 L 2.734375 -2.3125 L 2.734375 0 L 1.203125 0 L 1.203125 -9.09375 L 2.734375 -9.09375 L 2.734375 -4.390625 L 7.078125 -9.09375 L 8.875 -9.09375 L 5.359375 -5.21875 L 9.109375 0 Z M 7.265625 0 "/></g></g></g><g fill="#69dfeb" fill-opacity="1"><g transform="translate(214.524277, 274.427092)"><g/></g></g><g fill="#69dfeb" fill-opacity="1"><g transform="translate(220.477241, 274.427092)"><g><path d="M 10.5625 0 L 8.984375 0 L 6.828125 -7.09375 L 4.640625 0 L 3.0625 0 L 0.03125 -9.09375 L 1.6875 -9.09375 L 3.90625 -1.703125 L 6.09375 -9.09375 L 7.609375 -9.09375 L 9.8125 -1.703125 L 12.015625 -9.09375 L 13.59375 -9.09375 Z M 10.5625 0 "/></g></g></g><g fill="#69dfeb" fill-opacity="1"><g transform="translate(236.541106, 274.427092)"><g><path d="M 7.703125 -7.71875 L 2.734375 -7.71875 L 2.734375 -5.265625 L 7.171875 -5.265625 L 7.171875 -3.890625 L 2.734375 -3.890625 L 2.734375 -1.375 L 7.859375 -1.375 L 7.859375 0 L 1.203125 0 L 1.203125 -9.09375 L 7.703125 -9.09375 Z M 7.703125 -7.71875 "/></g></g></g><g fill="#69dfeb" fill-opacity="1"><g transform="translate(247.666491, 274.427092)"><g><path d="M 1.203125 -9.09375 L 5.140625 -9.09375 C 6.085938 -9.09375 6.832031 -8.890625 7.375 -8.484375 C 7.925781 -8.085938 8.203125 -7.535156 8.203125 -6.828125 C 8.203125 -6.316406 8.054688 -5.878906 7.765625 -5.515625 C 7.484375 -5.160156 7.097656 -4.921875 6.609375 -4.796875 C 7.210938 -4.691406 7.6875 -4.4375 8.03125 -4.03125 C 8.375 -3.625 8.546875 -3.113281 8.546875 -2.5 C 8.546875 -1.71875 8.25 -1.101562 7.65625 -0.65625 C 7.070312 -0.21875 6.265625 0 5.234375 0 L 1.203125 0 Z M 2.734375 -7.734375 L 2.734375 -5.328125 L 5.0625 -5.328125 C 5.550781 -5.328125 5.929688 -5.4375 6.203125 -5.65625 C 6.484375 -5.875 6.625 -6.171875 6.625 -6.546875 C 6.625 -6.929688 6.488281 -7.222656 6.21875 -7.421875 C 5.945312 -7.628906 5.5625 -7.734375 5.0625 -7.734375 Z M 2.734375 -3.984375 L 2.734375 -1.359375 L 5.0625 -1.359375 C 5.675781 -1.359375 6.148438 -1.472656 6.484375 -1.703125 C 6.816406 -1.929688 6.984375 -2.257812 6.984375 -2.6875 C 6.984375 -3.082031 6.8125 -3.394531 6.46875 -3.625 C 6.132812 -3.863281 5.664062 -3.984375 5.0625 -3.984375 Z M 2.734375 -3.984375 "/></g></g></g><g fill="#69dfeb" fill-opacity="1"><g transform="translate(132.344396, 292.42709)"><g><path d="M 1.203125 -9.09375 L 4.921875 -9.09375 C 6.285156 -9.09375 7.410156 -8.664062 8.296875 -7.8125 C 9.191406 -6.957031 9.640625 -5.867188 9.640625 -4.546875 C 9.640625 -3.234375 9.191406 -2.144531 8.296875 -1.28125 C 7.398438 -0.425781 6.265625 0 4.890625 0 L 1.203125 0 Z M 2.734375 -7.71875 L 2.734375 -1.375 L 4.96875 -1.375 C 5.863281 -1.375 6.609375 -1.671875 7.203125 -2.265625 C 7.796875 -2.859375 8.09375 -3.613281 8.09375 -4.53125 C 8.09375 -5.457031 7.785156 -6.21875 7.171875 -6.8125 C 6.554688 -7.414062 5.800781 -7.71875 4.90625 -7.71875 Z M 2.734375 -7.71875 "/></g></g></g><g fill="#69dfeb" fill-opacity="1"><g transform="translate(145.016301, 292.42709)"><g><path d="M 7.703125 -7.71875 L 2.734375 -7.71875 L 2.734375 -5.265625 L 7.171875 -5.265625 L 7.171875 -3.890625 L 2.734375 -3.890625 L 2.734375 -1.375 L 7.859375 -1.375 L 7.859375 0 L 1.203125 0 L 1.203125 -9.09375 L 7.703125 -9.09375 Z M 7.703125 -7.71875 "/></g></g></g><g fill="#69dfeb" fill-opacity="1"><g transform="translate(156.141686, 292.42709)"><g><path d="M 5.25 0 L 3.671875 0 L 0.03125 -9.09375 L 1.6875 -9.09375 L 4.5 -1.703125 L 7.328125 -9.09375 L 8.9375 -9.09375 Z M 5.25 0 "/></g></g></g><g fill="#69dfeb" fill-opacity="1"><g transform="translate(167.708927, 292.42709)"><g><path d="M 7.703125 -7.71875 L 2.734375 -7.71875 L 2.734375 -5.265625 L 7.171875 -5.265625 L 7.171875 -3.890625 L 2.734375 -3.890625 L 2.734375 -1.375 L 7.859375 -1.375 L 7.859375 0 L 1.203125 0 L 1.203125 -9.09375 L 7.703125 -9.09375 Z M 7.703125 -7.71875 "/></g></g></g><g fill="#69dfeb" fill-opacity="1"><g transform="translate(178.834311, 292.42709)"><g><path d="M 2.734375 -1.390625 L 6.671875 -1.390625 L 6.671875 0 L 1.203125 0 L 1.203125 -9.09375 L 2.734375 -9.09375 Z M 2.734375 -1.390625 "/></g></g></g><g fill="#69dfeb" fill-opacity="1"><g transform="translate(188.374174, 292.42709)"><g><path d="M 1.828125 -7.8125 C 2.753906 -8.695312 3.898438 -9.140625 5.265625 -9.140625 C 6.628906 -9.140625 7.773438 -8.695312 8.703125 -7.8125 C 9.628906 -6.9375 10.09375 -5.847656 10.09375 -4.546875 C 10.09375 -3.242188 9.628906 -2.148438 8.703125 -1.265625 C 7.773438 -0.378906 6.628906 0.0625 5.265625 0.0625 C 3.898438 0.0625 2.753906 -0.378906 1.828125 -1.265625 C 0.898438 -2.148438 0.4375 -3.242188 0.4375 -4.546875 C 0.4375 -5.847656 0.898438 -6.9375 1.828125 -7.8125 Z M 5.28125 -7.765625 C 4.375 -7.765625 3.597656 -7.453125 2.953125 -6.828125 C 2.316406 -6.210938 2 -5.453125 2 -4.546875 C 2 -3.648438 2.320312 -2.882812 2.96875 -2.25 C 3.613281 -1.625 4.378906 -1.3125 5.265625 -1.3125 C 6.160156 -1.3125 6.925781 -1.625 7.5625 -2.25 C 8.195312 -2.882812 8.515625 -3.648438 8.515625 -4.546875 C 8.515625 -5.453125 8.195312 -6.210938 7.5625 -6.828125 C 6.925781 -7.453125 6.164062 -7.765625 5.28125 -7.765625 Z M 5.28125 -7.765625 "/></g></g></g><g fill="#69dfeb" fill-opacity="1"><g transform="translate(201.500947, 292.42709)"><g><path d="M 1.203125 -9.09375 L 4.828125 -9.09375 C 5.960938 -9.09375 6.84375 -8.820312 7.46875 -8.28125 C 8.101562 -7.738281 8.421875 -6.976562 8.421875 -6 C 8.421875 -4.96875 8.101562 -4.164062 7.46875 -3.59375 C 6.84375 -3.03125 5.960938 -2.75 4.828125 -2.75 L 2.734375 -2.75 L 2.734375 0 L 1.203125 0 Z M 2.734375 -7.71875 L 2.734375 -4.125 L 4.765625 -4.125 C 6.222656 -4.125 6.953125 -4.734375 6.953125 -5.953125 C 6.953125 -7.128906 6.222656 -7.71875 4.765625 -7.71875 Z M 2.734375 -7.71875 "/></g></g></g><g fill="#69dfeb" fill-opacity="1"><g transform="translate(212.84726, 292.42709)"><g><path d="M 7.703125 -7.71875 L 2.734375 -7.71875 L 2.734375 -5.265625 L 7.171875 -5.265625 L 7.171875 -3.890625 L 2.734375 -3.890625 L 2.734375 -1.375 L 7.859375 -1.375 L 7.859375 0 L 1.203125 0 L 1.203125 -9.09375 L 7.703125 -9.09375 Z M 7.703125 -7.71875 "/></g></g></g><g fill="#69dfeb" fill-opacity="1"><g transform="translate(223.972644, 292.42709)"><g><path d="M 6.96875 0 L 5.296875 -2.75 C 5.210938 -2.75 5.078125 -2.75 4.890625 -2.75 L 2.734375 -2.75 L 2.734375 0 L 1.203125 0 L 1.203125 -9.09375 L 4.890625 -9.09375 C 6.046875 -9.09375 6.941406 -8.820312 7.578125 -8.28125 C 8.222656 -7.738281 8.546875 -6.976562 8.546875 -6 C 8.546875 -5.269531 8.382812 -4.648438 8.0625 -4.140625 C 7.738281 -3.640625 7.273438 -3.273438 6.671875 -3.046875 L 8.703125 0 Z M 2.734375 -4.125 L 4.890625 -4.125 C 6.359375 -4.125 7.09375 -4.734375 7.09375 -5.953125 C 7.09375 -7.128906 6.359375 -7.71875 4.890625 -7.71875 L 2.734375 -7.71875 Z M 2.734375 -4.125 "/></g></g></g><g fill="#69dfeb" fill-opacity="1"><g transform="translate(125.284559, 176.68471)"><g><path d="M 67.664062 -8.660156 C 64.433594 -5.542969 60.507812 -2.65625 55.308594 -1.5 C 36.027344 3.808594 19.167969 -14.433594 14.550781 -32.101562 C 10.046875 -49.652344 15.242188 -73.902344 34.871094 -79.328125 C 59.351562 -86.140625 71.707031 -60.042969 72.285156 -58.660156 L 72.285156 -70.667969 C 72.285156 -70.667969 60.160156 -87.179688 34.757812 -80.136719 C 12.703125 -74.363281 -0.347656 -51.730469 5.542969 -29.792969 C 11.546875 -7.851562 34.0625 5.425781 55.542969 -0.921875 C 64.203125 -3.117188 71.476562 -7.851562 76.441406 -14.203125 L 76.441406 -38.335938 L 32.332031 -38.335938 L 32.332031 -29.445312 C 40.53125 -36.949219 53.578125 -37.414062 67.664062 -37.414062 Z M 67.664062 -8.660156 "/></g></g></g><g fill="#69dfeb" fill-opacity="1"><g transform="translate(155.775184, 208.608303)"><g><path d="M 34.527344 -80.367188 C 12.703125 -74.476562 -0.347656 -52.078125 5.425781 -30.136719 C 11.429688 -7.96875 33.71875 5.082031 55.425781 -1.039062 C 77.363281 -6.8125 90.414062 -29.558594 84.292969 -51.152344 C 78.636719 -73.09375 56.117188 -86.488281 34.527344 -80.367188 Z M 34.640625 -79.445312 C 54.5 -84.984375 70.667969 -66.625 75.402344 -48.84375 C 79.90625 -31.292969 74.941406 -6.929688 55.195312 -1.847656 C 35.679688 3.347656 19.398438 -15.125 14.78125 -32.5625 C 10.046875 -50.230469 15.011719 -74.363281 34.640625 -79.445312 Z M 34.640625 -79.445312 "/></g></g></g><g fill="#69dfeb" fill-opacity="1"><g transform="translate(67.997233, 245.557148)"><g><path d="M 14.773438 -1.890625 C 14.066406 -1.210938 13.207031 -0.578125 12.074219 -0.328125 C 7.863281 0.832031 4.183594 -3.152344 3.175781 -7.007812 C 2.191406 -10.839844 3.328125 -16.132812 7.613281 -17.316406 C 12.957031 -18.804688 15.652344 -13.109375 15.78125 -12.804688 L 15.78125 -15.425781 C 15.78125 -15.425781 13.132812 -19.03125 7.585938 -17.492188 C 2.773438 -16.234375 -0.0742188 -11.292969 1.210938 -6.503906 C 2.519531 -1.714844 7.4375 1.183594 12.125 -0.203125 C 14.015625 -0.679688 15.601562 -1.714844 16.6875 -3.101562 L 16.6875 -8.367188 L 7.058594 -8.367188 L 7.058594 -6.429688 C 8.847656 -8.066406 11.695312 -8.167969 14.773438 -8.167969 Z M 14.773438 -1.890625 "/></g></g></g><g fill="#69dfeb" fill-opacity="1"><g transform="translate(86.499326, 245.557148)"><g><path d="M 2.875 -17.820312 L 0.882812 -17.820312 L 0.882812 -6.453125 C 0.882812 -1.460938 5.875 1.234375 10.386719 -0.378906 C 13.03125 -1.359375 14.417969 -3.65625 14.417969 -6.453125 L 14.417969 -17.820312 L 12.453125 -17.820312 C 14.117188 -15.652344 14.191406 -10.234375 14.191406 -6.453125 C 14.191406 -3.554688 12.753906 -1.460938 10.335938 -0.578125 C 6.277344 0.933594 2.875 -2.269531 2.875 -6.453125 Z M 2.875 -17.820312 "/></g></g></g><g fill="#69dfeb" fill-opacity="1"><g transform="translate(102.732776, 245.557148)"><g><path d="M 2.167969 -13.511719 C 2.167969 -10.636719 4.816406 -9.199219 7.511719 -7.992188 C 13.386719 -5.292969 13.839844 -2.695312 12.175781 -1.3125 C 9 1.359375 3.351562 -0.832031 0.882812 -7.082031 L 0.882812 -3.578125 C 3.730469 0.0742188 9.503906 1.082031 12.375 -1.109375 C 13.285156 -1.839844 13.839844 -2.898438 13.839844 -4.261719 C 13.839844 -7.234375 11.21875 -8.671875 8.46875 -9.855469 C 2.320312 -12.730469 2.117188 -15.503906 4.082031 -16.789062 C 6.402344 -18.402344 10.992188 -18.023438 13.535156 -12.855469 L 13.535156 -15.503906 C 11.367188 -19.007812 2.167969 -19.132812 2.167969 -13.511719 Z M 2.167969 -13.511719 "/></g></g></g><g fill="#69dfeb" fill-opacity="1"><g transform="translate(118.38647, 245.557148)"><g><path d="M 6.882812 0 L 8.824219 0 L 8.824219 -17.621094 C 11.496094 -17.59375 13.109375 -17.445312 14.820312 -15.855469 L 14.820312 -17.820312 L 0.882812 -17.820312 L 0.882812 -15.855469 C 2.546875 -17.445312 4.183594 -17.59375 6.882812 -17.621094 Z M 6.882812 0 "/></g></g></g><g fill="#69dfeb" fill-opacity="1"><g transform="translate(135.023231, 245.557148)"><g><path d="M 13.132812 0 L 15.25 0 L 7.714844 -17.796875 L 7.535156 -17.796875 C 5.621094 -14.542969 3.351562 -9.957031 2.015625 -6.351562 C 1.410156 -4.738281 1.058594 -3.328125 0.933594 -2.21875 C 0.804688 -1.082031 1.082031 -0.328125 1.765625 -0.0234375 C 1.941406 0.125 2.015625 0.125 2.167969 0.152344 C 3.300781 0.203125 3.730469 -0.730469 4.210938 -1.992188 C 5.015625 -3.832031 6 -6.429688 10.285156 -6.832031 Z M 10.210938 -7.007812 C 5.847656 -6.578125 4.839844 -3.933594 4.007812 -2.042969 C 3.605469 -0.882812 3.203125 0 2.191406 -0.0742188 C 2.066406 -0.152344 1.992188 -0.152344 1.839844 -0.203125 C 1.234375 -0.402344 1.058594 -1.183594 1.109375 -2.21875 C 1.234375 -3.300781 1.589844 -4.6875 2.191406 -6.300781 C 3.25 -9.226562 4.964844 -12.652344 6.503906 -15.628906 Z M 10.210938 -7.007812 "/></g></g></g><g fill="#69dfeb" fill-opacity="1"><g transform="translate(152.088517, 245.557148)"><g><path d="M 15.878906 -17.820312 L 10.410156 -4.914062 L 9.425781 -2.519531 L 2.949219 -17.820312 L 0.882812 -17.820312 L 8.394531 0 L 8.597656 0 L 14.820312 -14.746094 L 16.132812 -17.820312 Z M 15.878906 -17.820312 "/></g></g></g><g fill="#69dfeb" fill-opacity="1"><g transform="translate(170.036056, 245.557148)"><g><path d="M 7.535156 -17.542969 C 2.773438 -16.257812 -0.0742188 -11.367188 1.183594 -6.578125 C 2.496094 -1.738281 7.359375 1.109375 12.097656 -0.226562 C 16.890625 -1.488281 19.738281 -6.453125 18.402344 -11.167969 C 17.167969 -15.957031 12.25 -18.878906 7.535156 -17.542969 Z M 7.5625 -17.34375 C 11.898438 -18.550781 15.425781 -14.542969 16.460938 -10.664062 C 17.445312 -6.832031 16.359375 -1.511719 12.050781 -0.402344 C 7.789062 0.730469 4.234375 -3.300781 3.226562 -7.109375 C 2.191406 -10.964844 3.277344 -16.234375 7.5625 -17.34375 Z M 7.5625 -17.34375 "/></g></g></g><g fill="#69dfeb" fill-opacity="1"><g transform="translate(190.605127, 245.557148)"><g/></g></g><g fill="#69dfeb" fill-opacity="1"><g transform="translate(198.570673, 245.557148)"><g><path d="M 7.535156 -17.542969 C 2.773438 -16.257812 -0.0742188 -11.367188 1.183594 -6.578125 C 2.496094 -1.738281 7.359375 1.109375 12.097656 -0.226562 C 16.890625 -1.488281 19.738281 -6.453125 18.402344 -11.167969 C 17.167969 -15.957031 12.25 -18.878906 7.535156 -17.542969 Z M 7.5625 -17.34375 C 11.898438 -18.550781 15.425781 -14.542969 16.460938 -10.664062 C 17.445312 -6.832031 16.359375 -1.511719 12.050781 -0.402344 C 7.789062 0.730469 4.234375 -3.300781 3.226562 -7.109375 C 2.191406 -10.964844 3.277344 -16.234375 7.5625 -17.34375 Z M 7.5625 -17.34375 "/></g></g></g><g fill="#69dfeb" fill-opacity="1"><g transform="translate(219.139744, 245.557148)"><g><path d="M 11.546875 -3.730469 C 10.613281 -1.183594 9.328125 -0.203125 7.160156 -0.203125 L 2.898438 -0.203125 L 2.898438 -17.796875 L 0.882812 -17.796875 L 0.882812 0 L 10.941406 0 Z M 11.546875 -3.730469 "/></g></g></g><g fill="#69dfeb" fill-opacity="1"><g transform="translate(232.499599, 245.557148)"><g><path d="M 0.882812 0 L 2.773438 0 L 2.773438 -17.796875 L 0.882812 -17.796875 Z M 0.882812 0 "/></g></g></g><g fill="#69dfeb" fill-opacity="1"><g transform="translate(237.087409, 245.557148)"><g><path d="M 15.878906 -17.820312 L 10.410156 -4.914062 L 9.425781 -2.519531 L 2.949219 -17.820312 L 0.882812 -17.820312 L 8.394531 0 L 8.597656 0 L 14.820312 -14.746094 L 16.132812 -17.820312 Z M 15.878906 -17.820312 "/></g></g></g><g fill="#69dfeb" fill-opacity="1"><g transform="translate(255.034948, 245.557148)"><g><path d="M 2.824219 -11.871094 C 3.554688 -8.898438 6.578125 -9.050781 8.042969 -7.386719 L 8.042969 -9.378906 C 4.585938 -9.378906 2.824219 -10.082031 2.824219 -13.535156 L 2.824219 -17.621094 L 4.890625 -17.621094 C 7.964844 -17.621094 9.277344 -17.492188 11.066406 -15.78125 L 11.066406 -17.796875 L 0.882812 -17.796875 L 0.882812 0 L 10.914062 0 L 11.496094 -3.730469 C 10.585938 -1.183594 9.277344 -0.203125 7.082031 -0.203125 L 2.824219 -0.203125 Z M 2.824219 -11.871094 "/></g></g></g><g fill="#69dfeb" fill-opacity="1"><g transform="translate(268.34438, 245.557148)"><g><path d="M 0.882812 0 L 2.773438 0 L 2.773438 -17.796875 L 0.882812 -17.796875 Z M 0.882812 0 "/></g></g></g><g fill="#69dfeb" fill-opacity="1"><g transform="translate(272.932179, 245.557148)"><g><path d="M 8.015625 -9.832031 C 10.210938 -10.109375 12.074219 -11.367188 12.074219 -13.839844 C 12.074219 -16.710938 9.023438 -17.820312 5.320312 -17.820312 L 0.882812 -17.820312 L 0.882812 0 L 2.875 0 L 2.875 -14.140625 C 3.101562 -13.082031 3.402344 -12.277344 3.855469 -11.546875 C 4.613281 -10.359375 5.695312 -9.730469 6.933594 -9.730469 C 12.628906 -9.730469 6.933594 0 16.109375 0 L 16.109375 -0.203125 C 14.417969 -0.203125 13.484375 -2.117188 12.527344 -4.308594 C 11.519531 -6.679688 10.636719 -9.226562 8.015625 -9.832031 Z M 10.082031 -13.839844 C 10.082031 -11.191406 8.722656 -10.007812 7.109375 -9.90625 L 6.933594 -9.90625 C 5.773438 -9.90625 4.738281 -10.636719 4.03125 -11.671875 C 3.328125 -12.78125 2.875 -14.21875 2.875 -16.058594 L 2.875 -17.621094 L 5.320312 -17.621094 C 7.765625 -17.621094 10.082031 -16.710938 10.082031 -13.839844 Z M 10.082031 -13.839844 "/></g></g></g><g fill="#69dfeb" fill-opacity="1"><g transform="translate(290.854495, 245.557148)"><g><path d="M 13.132812 0 L 15.25 0 L 7.714844 -17.796875 L 7.535156 -17.796875 C 5.621094 -14.542969 3.351562 -9.957031 2.015625 -6.351562 C 1.410156 -4.738281 1.058594 -3.328125 0.933594 -2.21875 C 0.804688 -1.082031 1.082031 -0.328125 1.765625 -0.0234375 C 1.941406 0.125 2.015625 0.125 2.167969 0.152344 C 3.300781 0.203125 3.730469 -0.730469 4.210938 -1.992188 C 5.015625 -3.832031 6 -6.429688 10.285156 -6.832031 Z M 10.210938 -7.007812 C 5.847656 -6.578125 4.839844 -3.933594 4.007812 -2.042969 C 3.605469 -0.882812 3.203125 0 2.191406 -0.0742188 C 2.066406 -0.152344 1.992188 -0.152344 1.839844 -0.203125 C 1.234375 -0.402344 1.058594 -1.183594 1.109375 -2.21875 C 1.234375 -3.300781 1.589844 -4.6875 2.191406 -6.300781 C 3.25 -9.226562 4.964844 -12.652344 6.503906 -15.628906 Z M 10.210938 -7.007812 "/></g></g></g></svg>