<svg xmlns="http://www.w3.org/2000/svg" xmlns:xlink="http://www.w3.org/1999/xlink" width="40" zoomAndPan="magnify" viewBox="0 0 30 30.000001" height="40" preserveAspectRatio="xMidYMid meet" version="1.0"><path fill="#69dfeb" d="M 16.078125 17.386719 C 15.601562 17.84375 15.023438 18.269531 14.257812 18.441406 C 11.414062 19.222656 8.929688 16.535156 8.25 13.929688 C 7.585938 11.34375 8.351562 7.769531 11.246094 6.96875 C 14.851562 5.964844 16.675781 9.8125 16.757812 10.015625 L 16.757812 8.246094 C 16.757812 8.246094 14.972656 5.8125 11.226562 6.851562 C 7.976562 7.699219 6.054688 11.035156 6.921875 14.269531 C 7.808594 17.503906 11.125 19.460938 14.292969 18.527344 C 15.566406 18.203125 16.640625 17.503906 17.371094 16.566406 L 17.371094 13.011719 L 10.871094 13.011719 L 10.871094 14.320312 C 12.078125 13.214844 14.003906 13.148438 16.078125 13.148438 Z M 16.078125 17.386719 " fill-opacity="1" fill-rule="nonzero"/><path fill="#69dfeb" d="M 15.003906 12.480469 C 11.789062 13.347656 9.863281 16.652344 10.714844 19.886719 C 11.601562 23.152344 14.886719 25.078125 18.085938 24.175781 C 21.320312 23.324219 23.242188 19.96875 22.339844 16.789062 C 21.503906 13.554688 18.1875 11.578125 15.003906 12.480469 Z M 15.019531 12.617188 C 17.949219 11.800781 20.332031 14.507812 21.027344 17.128906 C 21.691406 19.714844 20.960938 23.304688 18.050781 24.054688 C 15.175781 24.820312 12.773438 22.097656 12.09375 19.527344 C 11.394531 16.921875 12.128906 13.367188 15.019531 12.617188 Z M 15.019531 12.617188 " fill-opacity="1" fill-rule="nonzero"/></svg>